
<svg version="1.1" id="Layer_1" xmlns="http://www.w3.org/2000/svg" xmlns:xlink="http://www.w3.org/1999/xlink" x="0px" y="0px"
	 width="50px" height="50px" viewBox="0 0 50 50" enable-background="new 0 0 50 50" xml:space="preserve">
<rect x="-0.449" y="-0.469" fill="#5E6161" width="51.02" height="51.19"/>
<path fill="#FFFFFF" d="M40.353,44.827H30.272c-1.213,0-2.272-0.882-2.518-2.098c-0.034-0.174-0.053-0.352-0.053-0.533v-8.345
	c-0.094-0.261-0.372-0.443-0.692-0.443h-2.733c-0.32,0-0.599,0.182-0.692,0.442v8.345c0,0.183-0.019,0.361-0.054,0.534
	c-0.245,1.214-1.304,2.097-2.517,2.097H10.932c-1.417,0-2.571-1.18-2.571-2.631V28.944l17.282-17.533l17.281,17.533v13.253
	C42.924,43.647,41.771,44.827,40.353,44.827z M24.276,31.409h2.733c1.291,0,2.414,0.886,2.671,2.107l0.021,0.206v8.475
	c0,0.048,0.005,0.095,0.014,0.141c0.058,0.282,0.292,0.49,0.557,0.49h10.081c0.315,0,0.571-0.283,0.571-0.631V29.764L25.643,14.26
	L10.361,29.764v12.433c0,0.348,0.256,0.631,0.571,0.631h10.081c0.265,0,0.499-0.208,0.557-0.493
	c0.009-0.045,0.014-0.091,0.014-0.138l0.021-8.68C21.861,32.295,22.984,31.409,24.276,31.409z"/>
</svg>